<svg width="25.000000" height="32.000000" viewBox="0 0 25 32" fill="none" xmlns="http://www.w3.org/2000/svg" xmlns:xlink="http://www.w3.org/1999/xlink">
	<desc>
			Created with Pixso.
	</desc>
	<defs/>
	<path id="Path" d="M21.87 22.87L16.77 20.32C16.29 20.08 16 19.6 16 19.06L16 17.26C16.12 17.11 16.25 16.94 16.38 16.75C17.04 15.82 17.57 14.78 17.95 13.66C18.71 13.31 19.2 12.57 19.2 11.73L19.2 9.6C19.2 9.08 19 8.58 18.66 8.2L18.66 5.36C18.69 5.06 18.81 3.32 17.55 1.88C16.45 0.63 14.67 0 12.26 0C9.85 0 8.07 0.63 6.98 1.88C5.71 3.32 5.83 5.06 5.86 5.36L5.86 8.2C5.52 8.58 5.33 9.08 5.33 9.6L5.33 11.73C5.33 12.38 5.62 12.98 6.13 13.39C6.62 15.32 7.64 16.78 8 17.25L8 19.01C8 19.53 7.71 20 7.26 20.25L2.5 22.84C0.96 23.69 0 25.31 0 27.07L0 28.8C0 31.33 8.02 32 12.26 32C16.5 32 24.53 31.33 24.53 28.8L24.53 27.17C24.53 25.34 23.51 23.69 21.87 22.87Z" fill="#FFFFFF" fill-opacity="1.000000" fill-rule="nonzero"/>
</svg>
